<?xml version="1.0" standalone="no"?>
<!DOCTYPE svg PUBLIC "-//W3C//DTD SVG 1.1//EN" "http://www.w3.org/Graphics/SVG/1.1/DTD/svg11.dtd" >
<svg xmlns="http://www.w3.org/2000/svg">
<metadata></metadata>
<defs>
<font id="averregular" horiz-adv-x="1172" >
<font-face units-per-em="2048" ascent="1638" descent="-410" />
<missing-glyph horiz-adv-x="508" />
<glyph horiz-adv-x="0" />
<glyph unicode="&#xd;" horiz-adv-x="508" />
<glyph unicode=" "  horiz-adv-x="508" />
<glyph unicode="&#x09;" horiz-adv-x="508" />
<glyph unicode="&#xa0;" horiz-adv-x="508" />
<glyph unicode="!" horiz-adv-x="478" d="M88 1246q0 188 152 188q150 0 150 -188q-4 -124 -98 -846h-106q-94 722 -98 846zM124 102q0 44 34 78t82 34t82 -34t34 -78q0 -46 -34 -80q-32 -32 -82 -32t-82 32q-34 34 -34 80z" />
<glyph unicode="&#x22;" horiz-adv-x="698" d="M98 1328q0 104 104 106q104 -2 104 -106q0 -66 -80 -258h-48q-80 192 -80 258zM390 1328q0 102 106 106q104 -2 104 -106q0 -60 -82 -258h-46q-82 198 -82 258z" />
<glyph unicode="#" horiz-adv-x="1118" d="M48 342l10 96h202l28 280h-204l10 96h202l44 446h96l-44 -446h378l44 446h96l-44 -446h202l-10 -96h-202l-26 -280h202l-10 -96h-202l-32 -340h-96l32 340h-378l-32 -340h-96l32 340h-202zM356 438h378l26 280h-378z" />
<glyph unicode="$" horiz-adv-x="842" d="M48 404q16 132 128 132q100 0 110 -88q0 -74 -50 -118q-28 -28 -28 -56q0 -26 22 -54q42 -52 142 -62v492q-320 118 -324 342q0 300 324 344v84h100v-80q154 -12 236 -100q86 -86 86 -224q-12 -132 -128 -132q-100 0 -110 88q0 74 50 118q28 28 28 56q0 26 -22 54 q-38 52 -140 62v-492q320 -118 322 -342q0 -302 -322 -344v-84h-100v80q-156 12 -236 100q-88 88 -88 224zM246 1018q0 -112 126 -196v426q-126 -48 -126 -230zM472 174q126 46 126 228q-4 114 -126 194v-422z" />
<glyph unicode="%" horiz-adv-x="1540" d="M118 1140q0 120 68 200q68 86 228 86t226 -86q68 -82 68 -200q0 -116 -68 -198q-66 -82 -226 -82q-158 0 -228 82q-68 82 -68 198zM258 1142q0 -84 30 -142q34 -60 126 -60t124 60q32 56 32 142q0 80 -32 142t-124 62q-96 0 -126 -62t-30 -142zM292 0l854 1418h100 l-856 -1418h-98zM830 284q0 116 68 196q70 84 226 84q162 0 228 -84q68 -80 68 -196q0 -118 -66 -200q-68 -86 -228 -86t-228 86q-68 80 -68 200zM970 282q0 -80 30 -144q34 -60 126 -60q94 0 124 60q32 62 32 144q0 86 -32 142q-32 60 -124 60t-126 -60q-30 -56 -30 -142z " />
<glyph unicode="&#x26;" horiz-adv-x="1216" d="M68 434q0 318 306 410q-178 106 -178 302q10 274 314 278q84 0 174 -36h74v-264h-72q-8 192 -152 192q-146 -14 -146 -162q0 -206 316 -248l-98 -108q-298 -10 -298 -364q4 -366 334 -372q336 6 356 372q0 106 -28 186q-360 -62 -360 -170q14 -26 50 -26q56 12 94 16h2 q106 0 108 -90q0 -106 -146 -108q-210 14 -216 238q0 208 286 284q286 78 286 162q-16 40 -44 40q-22 0 -54 -16q-26 -8 -54 -8q-100 0 -106 98q0 80 118 98q224 0 238 -218q0 -136 -88 -214q84 -104 84 -272q0 -436 -526 -448q-574 12 -574 448z" />
<glyph unicode="'" horiz-adv-x="404" d="M98 1328q0 104 104 106q104 -2 104 -106q0 -66 -80 -258h-48q-80 192 -80 258z" />
<glyph unicode="(" horiz-adv-x="596" d="M98 706q0 350 116 558q118 210 332 210v-60q-140 -38 -188 -224q-48 -182 -48 -484q0 -290 48 -474q48 -186 188 -224v-58q-214 0 -332 208q-116 208 -116 548z" />
<glyph unicode=")" horiz-adv-x="596" d="M98 8q140 38 188 224q48 184 48 474q0 302 -48 484q-48 186 -188 224v60q216 0 332 -210q116 -208 116 -558q0 -340 -116 -548q-118 -208 -332 -208v58z" />
<glyph unicode="*" horiz-adv-x="918" d="M64 1048q0 42 30 72t72 30t70 -26l192 -146l-72 250l-2 16q-2 10 -2 18q0 42 30 72q28 30 76 30q52 0 78 -30q30 -30 30 -72q0 -8 -2 -18l-2 -16l-72 -250l192 146q28 26 70 26t72 -30t30 -72t-30 -72t-72 -30h-250l224 -160q48 -48 48 -90t-30 -72t-72 -30q-62 0 -96 66 l-118 258l-116 -258q-32 -66 -96 -66q-42 0 -72 30t-30 72t48 90l224 160h-250q-42 0 -72 30t-30 72z" />
<glyph unicode="+" d="M148 470v96h390v390h94v-390h392v-96h-392v-390h-94v390h-390z" />
<glyph unicode="," horiz-adv-x="382" d="M54 102q0 46 32 78q34 34 82 34q50 0 84 -34t34 -86q0 -146 -178 -318l-36 42q58 82 80 176q-38 0 -66 30q-32 32 -32 78z" />
<glyph unicode="-" horiz-adv-x="798" d="M78 488v96h642v-96h-642z" />
<glyph unicode="." horiz-adv-x="426" d="M98 102q0 46 32 78q34 34 82 34q50 0 84 -34t34 -78q0 -46 -34 -80q-32 -32 -84 -32q-50 0 -82 32t-32 80z" />
<glyph unicode="/" horiz-adv-x="662" d="M0 0l562 1488h100l-562 -1488h-100z" />
<glyph unicode="0" d="M36 568q0 254 136 420t408 166t414 -166t142 -420q0 -252 -138 -418q-138 -160 -414 -160q-274 0 -412 160q-136 164 -136 418zM252 568q0 -220 82 -360q82 -138 250 -138q170 0 256 138q78 124 78 360q0 222 -86 362q-86 144 -252 144q-164 0 -246 -144 q-82 -142 -82 -362z" />
<glyph unicode="1" d="M192 0v76q276 4 276 208v464h-272v90q280 20 398 276h114v-830q0 -202 274 -206v-78h-790z" />
<glyph unicode="2" d="M134 0v96q4 238 294 370q292 130 292 404q0 212 -232 212q-154 0 -174 -80q0 -36 44 -74t44 -94q-14 -84 -110 -90q-132 0 -136 142q2 98 62 160q106 112 318 112q410 0 412 -344q0 -296 -342 -386q-342 -92 -342 -246h774v-182h-904z" />
<glyph unicode="3" d="M142 76q6 154 138 154q116 0 116 -110q0 -82 -62 -136q-36 -32 -36 -70q28 -142 232 -154q154 4 240 110q60 76 60 210q0 390 -400 396v86q274 2 278 252q0 128 -42 184q-70 88 -180 88q-112 0 -132 -56q0 -22 42 -50q60 -32 60 -86q0 -88 -100 -98q-116 10 -118 130 q0 76 40 126q100 108 276 108q180 0 292 -106q94 -90 94 -216q0 -212 -238 -302q328 -70 328 -422q0 -146 -98 -262q-140 -174 -374 -174q-256 8 -356 194q-60 120 -60 204z" />
<glyph unicode="4" d="M144 104v136l620 874h134v-874h130v-136h-130v-312h-188v312h-566zM290 240h420v620z" />
<glyph unicode="5" d="M120 86q6 158 138 158q108 -10 116 -102q0 -90 -62 -144q-36 -36 -36 -72q38 -140 222 -152q132 4 234 110q100 106 110 290q0 152 -92 256q-94 106 -248 106q-158 -2 -252 -122l-42 44l192 656h552v-178h-510l-110 -370q70 58 224 60q204 0 350 -134q144 -134 144 -326 q-4 -204 -152 -338q-148 -136 -392 -136q-232 16 -328 194q-58 122 -58 200z" />
<glyph unicode="6" d="M108 520q16 546 540 900h102q-360 -342 -410 -714q110 188 324 188q400 0 400 -444q-12 -460 -468 -460q-468 0 -488 530zM330 508q0 -428 258 -428q264 0 272 360q0 346 -226 346q-194 0 -304 -278z" />
<glyph unicode="7" d="M112 722v392h948v-118l-528 -1184h-214l592 1134h-654q-70 -28 -70 -224h-74z" />
<glyph unicode="8" d="M116 406q0 288 264 374q-188 114 -188 298q0 340 394 350q394 -10 394 -350q0 -206 -188 -298q264 -104 264 -374q0 -416 -468 -416h-4q-468 0 -468 416zM302 418q0 -320 258 -324q288 4 288 324q0 134 -78 212q-78 82 -152 90l-108 16q-74 -18 -132 -90 q-76 -94 -76 -228zM384 1074q0 -224 262 -256q52 12 90 72q52 76 52 184q0 254 -202 260q-202 -4 -202 -260z" />
<glyph unicode="9" d="M108 700q12 460 468 460q466 0 488 -532q-14 -542 -540 -900h-104q362 344 412 716q-112 -190 -324 -190q-400 0 -400 446zM312 708q0 -346 226 -346q194 0 304 278q0 430 -258 430q-264 0 -272 -362z" />
<glyph unicode=":" horiz-adv-x="426" d="M98 102q0 46 32 78q34 34 82 34q50 0 84 -34t34 -78q0 -46 -34 -80q-32 -32 -84 -32q-50 0 -82 32t-32 80zM98 842q0 46 32 78q34 34 82 34q50 0 84 -34t34 -78q0 -46 -34 -80q-32 -32 -84 -32q-50 0 -82 32t-32 80z" />
<glyph unicode=";" horiz-adv-x="426" d="M54 102q0 46 32 78q34 34 82 34q50 0 84 -34t34 -86q0 -146 -178 -318l-36 42q58 82 80 176q-38 0 -66 30q-32 32 -32 78zM98 842q0 46 32 78q34 34 82 34q50 0 84 -34t34 -78q0 -46 -34 -80q-32 -32 -84 -32q-50 0 -82 32t-32 80z" />
<glyph unicode="&#x3c;" d="M146 500v94l876 378v-94l-766 -332l766 -332v-94z" />
<glyph unicode="=" d="M148 276v94h876v-94h-876zM148 666v94h876v-94h-876z" />
<glyph unicode="&#x3e;" d="M146 120v94l766 332l-766 332v94l876 -378v-94z" />
<glyph unicode="?" horiz-adv-x="856" d="M48 1116q0 140 96 228q100 90 276 90q338 -2 338 -340q-4 -220 -174 -394q-152 -156 -174 -304h-68q10 210 128 380q124 176 128 344q0 248 -230 248q-106 -4 -150 -62q-28 -38 -28 -72q0 -22 12 -44q48 -44 48 -116q-6 -82 -90 -82q-96 0 -112 124zM250 102q0 44 34 78 t82 34q50 0 84 -34q32 -32 32 -78q0 -48 -32 -80t-84 -32q-50 0 -82 32q-34 34 -34 80z" />
<glyph unicode="@" horiz-adv-x="1192" d="M74 708q0 706 550 722q388 0 410 -406v-446q0 -44 26 -44q16 0 46 14l42 -40q-54 -80 -134 -86q-76 0 -124 64q-80 -74 -192 -74q-256 4 -264 260q0 186 210 216q216 30 224 92v108q-26 264 -242 264q-362 0 -362 -640t362 -642q198 0 234 118q0 38 -48 40v66h308v-66 q-44 -2 -170 -120q-128 -118 -326 -118q-550 16 -550 718zM596 686q8 -150 164 -154q68 0 104 42v284q-24 -30 -142 -42q-116 -8 -126 -130z" />
<glyph unicode="A" horiz-adv-x="1254" d="M-20 0v66q62 2 128 160l452 1194h130l456 -1194q66 -158 128 -160v-66h-512v66q148 0 148 116q0 30 -12 74l-62 190h-498l-70 -190q-12 -42 -12 -74q0 -112 138 -116v-66h-414zM380 552h414l-206 620z" />
<glyph unicode="B" horiz-adv-x="1298" d="M98 0v66q146 2 146 114v1060q0 112 -146 114v66h610q398 -2 398 -344q0 -210 -218 -312q324 -50 332 -364q0 -400 -470 -400h-652zM450 206q0 -120 164 -120h44q332 2 332 302q0 302 -272 310h-268v-492zM450 804h222q220 18 220 256q0 270 -314 278h-128v-534z" />
<glyph unicode="C" horiz-adv-x="1314" d="M98 702q0 338 186 532q186 200 458 200q166 0 256 -60q36 -24 58 -24q38 0 38 66h88v-466h-86q-24 178 -96 284q-72 104 -238 104q-164 0 -288 -180q-122 -176 -122 -456q0 -278 118 -448q118 -166 300 -166q192 2 304 112q112 112 132 216h60q-30 -158 -162 -294 q-128 -132 -382 -136q-274 0 -446 186q-178 196 -178 530z" />
<glyph unicode="D" horiz-adv-x="1356" d="M40 0v66q146 2 146 114v1060q0 112 -146 114v66h530q340 -10 514 -194q174 -186 174 -524q0 -320 -174 -506q-176 -188 -514 -196h-530zM392 186q0 -92 134 -92h34q218 2 346 172q130 172 130 430q0 272 -130 456q-126 180 -346 180h-168v-1146z" />
<glyph unicode="E" horiz-adv-x="1214" d="M48 0v66q148 4 148 114v1060q0 110 -148 114v66h1034v-376h-92q0 268 -278 268h-310v-524h326q110 0 112 108h78v-314h-78q-2 98 -112 98h-326v-490q0 -82 94 -82h288q270 0 270 268h92v-376h-1098z" />
<glyph unicode="F" horiz-adv-x="1030" d="M58 0v66q138 4 138 114v1060q0 112 -138 114v66h952v-376h-92q0 268 -180 268h-336v-524h308q112 0 114 108h78v-314h-78q-2 98 -114 98h-308v-450q0 -160 156 -164v-66h-500z" />
<glyph unicode="G" horiz-adv-x="1366" d="M98 698q0 336 186 530t482 206q194 0 280 -60q40 -28 62 -28q36 0 36 64h86v-466h-86q-24 178 -96 284q-72 104 -260 104q-190 0 -314 -180q-122 -176 -122 -454q0 -276 118 -446q118 -166 306 -166q186 2 318 134v216q0 120 -190 124v68h422v-68q-54 -2 -54 -124v-416 l-38 -32q-80 22 -114 84l-16 48q-130 -134 -390 -136q-266 0 -438 186q-178 196 -178 528z" />
<glyph unicode="H" horiz-adv-x="1400" d="M30 0v66q146 2 146 114v1060q0 112 -146 114v66h508v-66q-156 -2 -156 -114v-458h636v458q0 112 -146 114v66h498v-66q-156 -2 -156 -114v-1060q0 -110 156 -114v-66h-498v66q146 2 146 114v494h-636v-494q0 -110 156 -114v-66h-508z" />
<glyph unicode="I" horiz-adv-x="606" d="M48 0v66q148 4 148 114v1060q0 110 -148 114v66h508v-66q-154 -4 -154 -114v-1060q0 -110 154 -114v-66h-508z" />
<glyph unicode="J" horiz-adv-x="624" d="M-20 -332q120 64 178 170q54 106 60 306v1096q0 112 -146 114v66h508v-66q-156 -2 -156 -114v-1112q-2 -254 -162 -402q-158 -146 -282 -146v88z" />
<glyph unicode="K" horiz-adv-x="1258" d="M78 0v66q146 2 146 114v1060q0 112 -146 114v66h508v-66q-156 -2 -156 -114v-630l490 648q8 16 8 32q0 50 -98 64v62h408v-64q-118 -22 -200 -130l-326 -420l416 -626q64 -90 168 -112v-64h-296l-428 608l-142 -204v-174q0 -160 156 -164v-66h-508z" />
<glyph unicode="L" horiz-adv-x="1110" d="M88 0v66q146 2 146 114v1060q0 112 -146 114v66h508v-66q-156 -2 -156 -114v-1054q0 -78 120 -78h118q272 0 272 260h92v-368h-954z" />
<glyph unicode="M" horiz-adv-x="1710" d="M58 0v66q98 2 98 114v962q0 210 -98 212v66h250l570 -1156l506 1156h268v-66q-98 -2 -98 -212v-962q0 -112 98 -114v-66h-410v66q94 4 106 100v804l-444 -970h-136l-480 962v-782q0 -110 96 -114v-66h-326z" />
<glyph unicode="N" horiz-adv-x="1376" d="M58 0v66q98 2 98 114v962q0 210 -98 212v66h184l838 -1022v842q0 110 -196 114v66h434v-66q-108 -2 -108 -114v-1240h-80l-842 982v-802q0 -110 204 -114v-66h-434z" />
<glyph unicode="O" horiz-adv-x="1484" d="M92 702q0 334 160 534q162 198 478 198q338 0 500 -198q160 -200 160 -534q0 -322 -162 -518q-158 -198 -478 -198q-334 0 -496 198q-162 196 -162 518zM330 702q6 -292 122 -458q116 -170 298 -170q192 0 296 164q106 166 106 464q-6 296 -120 464q-116 168 -302 168 q-190 0 -294 -164q-106 -166 -106 -468z" />
<glyph unicode="P" horiz-adv-x="1146" d="M58 0v66q148 4 148 114v1060q0 110 -148 114v66h476q584 -2 584 -394q-2 -392 -584 -394h-122v-354q0 -208 154 -212v-66h-508zM412 802q0 -86 98 -86h40q332 12 332 310q0 300 -332 308h-138v-532z" />
<glyph unicode="Q" horiz-adv-x="1484" d="M92 702q0 334 160 534q162 198 478 198q338 0 500 -198q160 -200 160 -534q0 -322 -162 -518q-74 -92 -182 -140q152 -28 280 -156q224 -246 412 -260v-44h-232q-222 0 -424 208q-190 182 -316 194h-16q-334 0 -496 198q-162 196 -162 518zM330 702q6 -292 122 -458 q116 -170 298 -170q192 0 296 164q106 166 106 464q-6 296 -120 464q-116 168 -302 168q-190 0 -294 -164q-106 -166 -106 -468z" />
<glyph unicode="R" horiz-adv-x="1206" d="M40 0v66q146 2 146 114v1060q0 112 -146 114v66h402q594 0 612 -358q0 -348 -418 -402q266 -42 338 -274q84 -318 272 -332v-54h-232q-220 2 -290 360q-50 236 -212 276h-120v-358q0 -208 154 -212v-66h-506zM392 832q0 -110 150 -110q296 32 296 304q0 298 -344 304 h-102v-498z" />
<glyph unicode="S" horiz-adv-x="1114" d="M98 152v352h100q38 -270 122 -346q82 -76 206 -76q148 0 218 62q66 58 70 196q-10 168 -230 290q-216 118 -310 186q-140 104 -152 262q0 146 118 252q116 104 334 104q216 0 352 -124v-264h-68q-40 164 -108 226q-70 62 -166 62q-124 0 -180 -62q-58 -64 -58 -154 q6 -100 214 -212q198 -106 306 -188q162 -128 176 -332q0 -176 -124 -288q-128 -112 -378 -112q-292 0 -442 166z" />
<glyph unicode="T" horiz-adv-x="1124" d="M40 1044v376h1044v-376h-90q0 268 -180 268h-148v-1132q0 -112 146 -114v-66h-500v66q146 2 146 114v1132h-148q-180 0 -180 -268h-90z" />
<glyph unicode="U" horiz-adv-x="1402" d="M16 1354v66h508v-66q-154 -4 -154 -214v-612q0 -410 374 -410q356 0 356 404v618q0 210 -148 214v66h434v-66q-156 -2 -156 -116v-738q0 -222 -132 -370q-132 -144 -408 -144q-278 0 -402 144q-124 148 -124 360v748q0 112 -148 116z" />
<glyph unicode="V" horiz-adv-x="1204" d="M-40 1354v66h510v-66q-104 -2 -104 -86q0 -22 8 -44l310 -986l316 998q2 10 2 20v12q0 82 -106 86v66h346v-66q-64 -4 -126 -158l-406 -1196h-128l-456 1196q-66 154 -166 158z" />
<glyph unicode="W" horiz-adv-x="1634" d="M-40 1346v74h466v-80q-130 -12 -130 -96l266 -904l248 1084h72l332 -1124l244 950q0 86 -146 88v82h372v-76q-62 -20 -86 -88l-344 -1256h-158l-272 980l-228 -980h-160l-384 1256q-26 68 -92 90z" />
<glyph unicode="X" horiz-adv-x="1220" d="M-20 0v66q142 4 228 116l326 486l-386 570q-74 112 -168 116v66h474v-66q-84 -2 -84 -66q0 -20 12 -48l240 -380l250 380q10 24 10 42q0 70 -78 72v66h436v-66q-152 -4 -238 -116l-324 -488l386 -568q86 -114 176 -116v-66h-482v66q84 4 84 66q0 22 -12 48l-242 380 l-250 -380q-8 -16 -8 -38q0 -72 102 -76v-66h-452z" />
<glyph unicode="Y" horiz-adv-x="1076" d="M-30 1354v66h428v-66q-84 -2 -84 -66q0 -22 14 -48l258 -502l250 502q14 26 14 48q0 64 -84 66v66h340v-66q-80 -2 -140 -116l-320 -636v-422q0 -112 146 -114v-66h-500v66q148 4 148 114v426l-348 632q-66 114 -122 116z" />
<glyph unicode="Z" horiz-adv-x="1054" d="M40 0v92l758 1228h-390q-268 0 -270 -260h-92v368h964v-108l-752 -1212h444q222 0 222 356h90v-464h-974z" />
<glyph unicode="[" horiz-adv-x="688" d="M250 -268v1688h374v-94h-216v-1498h216v-96h-374z" />
<glyph unicode="\" horiz-adv-x="662" d="M0 1488h100l562 -1488h-100z" />
<glyph unicode="]" horiz-adv-x="688" d="M62 -172h218v1498h-218v94h376v-1688h-376v96z" />
<glyph unicode="^" d="M160 544l378 876h94l380 -876h-94l-334 766l-330 -766h-94z" />
<glyph unicode="_" horiz-adv-x="1034" d="M-52 -82h1140v-98h-1140v98z" />
<glyph unicode="`" horiz-adv-x="488" d="M102 1236q0 54 44 86q30 24 68 24q48 0 84 -42l4 -6q34 -46 88 -250l-44 -30q-184 112 -222 154q-22 28 -22 64z" />
<glyph unicode="a" horiz-adv-x="1022" d="M88 252q0 254 252 292q250 42 324 124v114q-14 122 -112 122q-96 0 -112 -70t-68 -116q-36 -30 -78 -30q-112 4 -112 114q2 86 110 134q106 48 208 48q362 -2 370 -298v-538q0 -44 32 -44q14 0 56 16l54 -40q-68 -80 -168 -84q-94 0 -154 62q-116 -62 -302 -62 q-296 26 -300 256zM284 262q8 -176 218 -176q90 0 154 58v414q-60 -54 -216 -98t-156 -198z" />
<glyph unicode="b" horiz-adv-x="1114" d="M-10 1372v78q168 0 362 24v-568q88 78 252 78q410 0 418 -488q0 -496 -448 -500q-136 0 -270 92q-32 -64 -100 -92l-58 32v1246q-8 92 -156 98zM352 278q34 -176 204 -184q252 4 252 402q-6 396 -258 396q-144 0 -198 -130v-484z" />
<glyph unicode="c" horiz-adv-x="972" d="M84 498q10 484 478 486q146 -4 230 -64q94 -70 100 -178q0 -100 -104 -108q-118 12 -118 124q0 14 6 46q2 6 2 14v14q0 66 -94 66q-266 -2 -272 -398q4 -386 274 -390q174 0 264 192l56 -40q-98 -266 -384 -266q-430 4 -438 502z" />
<glyph unicode="d" horiz-adv-x="1092" d="M76 494q6 490 410 490q154 0 254 -112v402q-6 92 -156 98v78q168 0 362 24v-1278q10 -90 136 -96v-78q-88 0 -170 -6q-34 -2 -82 -8q-10 0 -22 -2l-46 -4q-12 -2 -22 -2v80q-78 -84 -246 -84q-412 0 -418 498zM290 494q6 -408 276 -408q126 0 174 118v512 q-78 160 -200 168q-246 -4 -250 -390z" />
<glyph unicode="e" horiz-adv-x="974" d="M70 502q22 480 446 482q406 0 406 -474h-618q4 -402 260 -402q186 0 270 188l58 -40q-92 -250 -376 -260q-424 8 -446 506zM310 610h402q-8 276 -180 280q-170 0 -222 -280z" />
<glyph unicode="f" horiz-adv-x="722" d="M44 874v80h180v238q0 364 310 392q250 0 286 -206q0 -128 -114 -132q-114 6 -116 102q0 40 14 62q22 38 22 50q0 26 -52 26q-144 0 -144 -230v-302h300v-80h-300v-694q0 -110 174 -114v-66h-500v66q120 4 120 114v694h-180z" />
<glyph unicode="g" horiz-adv-x="1042" d="M58 -44q0 180 214 220q-60 28 -60 112q10 82 102 90q-208 46 -208 296q0 310 402 310q154 0 222 -30h198v-80h-120q64 -80 66 -200q-10 -314 -380 -322q-138 -6 -138 -60q2 -50 156 -50h152q354 0 354 -286q-4 -292 -482 -292t-478 292zM250 -2q0 -246 290 -252 q250 0 254 184q0 186 -178 190q-166 4 -270 22q-96 -36 -96 -144zM326 674q4 -240 178 -240q162 0 164 240q-4 232 -156 232q-182 0 -186 -232z" />
<glyph unicode="h" horiz-adv-x="1162" d="M26 1374v76q168 0 360 24v-640q132 150 350 150q270 0 270 -322v-482q0 -110 130 -114v-66h-446v66q112 4 112 114v474q0 204 -160 204q-136 0 -256 -154v-524q0 -110 130 -114v-66h-454v66q118 4 118 114v1094q-6 90 -154 100z" />
<glyph unicode="i" horiz-adv-x="612" d="M68 874v80l184 4q82 6 178 18v-796q0 -112 128 -114v-66h-454v66q120 4 120 114v596q-10 96 -156 98zM148 1358q0 52 40 92t102 40t102 -40t40 -92t-40 -92t-102 -40t-102 40t-40 92z" />
<glyph unicode="j" horiz-adv-x="458" d="M10 -338q150 54 150 286v830q-10 94 -148 96v80q42 0 92 2l86 2q86 6 176 18v-1024q0 -178 -112 -274q-106 -98 -244 -98v82zM94 1358q0 52 40 92t102 40t102 -40t40 -92t-40 -92t-102 -40t-102 40t-40 92z" />
<glyph unicode="k" horiz-adv-x="1052" d="M6 1374v76q168 0 362 24v-1062l210 340q26 44 26 76q0 58 -90 58v68h382v-70q-78 0 -190 -144l-104 -144l266 -396q86 -130 208 -134v-66h-442v66q50 2 50 56q0 24 -8 48l-174 278l-134 -246q0 -134 128 -136v-66h-454v66q120 4 120 114v1094q-8 90 -156 100z" />
<glyph unicode="l" horiz-adv-x="546" d="M12 1374v76q168 0 362 24v-1294q0 -112 128 -114v-66h-454v66q118 4 118 114v1094q-6 90 -154 100z" />
<glyph unicode="m" horiz-adv-x="1608" d="M40 874v80l184 4q82 6 176 18v-142q106 148 284 150q202 -2 230 -150q124 150 304 150q262 0 262 -302v-502q0 -110 118 -114v-66h-432v66q112 4 112 114v474q0 200 -124 200q-96 0 -208 -154v-520q0 -110 120 -114v-66h-432v66q110 2 110 114v474q0 200 -124 200 q-100 0 -220 -154v-520q0 -110 130 -114v-66h-454v66q118 4 118 114v596q-10 96 -154 98z" />
<glyph unicode="n" horiz-adv-x="1156" d="M24 874v80q44 0 96 2q36 0 88 2q82 6 178 18v-140q132 148 340 148q280 0 280 -322v-482q0 -110 130 -114v-66h-446v66q112 4 112 114v474q0 204 -160 204q-140 0 -256 -152v-526q0 -110 120 -114v-66h-446v66q120 4 120 114v596q-10 96 -156 98z" />
<glyph unicode="o" horiz-adv-x="1138" d="M88 490q0 494 482 494q478 0 478 -494t-478 -494q-482 0 -482 494zM300 498q6 -406 274 -406q264 0 264 400q-2 396 -272 396q-266 0 -266 -390z" />
<glyph unicode="p" horiz-adv-x="1144" d="M40 884v78q98 0 184 6q82 6 176 18v-94q92 92 258 92q410 0 418 -488q0 -496 -448 -500q-130 0 -228 56v-282q0 -110 130 -114v-66h-454v66q118 4 118 114v1016q-8 92 -154 98zM400 278q40 -176 210 -184q252 4 252 402q-6 396 -258 396q-144 0 -204 -146v-468z" />
<glyph unicode="q" horiz-adv-x="1042" d="M58 494q10 490 442 490q154 0 266 -100q30 40 98 70l56 -34v-1160q0 -112 122 -114v-66h-446v66q118 4 118 114v304q-86 -68 -208 -68q-438 0 -448 498zM264 494q6 -408 276 -408q126 0 174 118v512q-78 160 -200 168q-246 -4 -250 -390z" />
<glyph unicode="r" horiz-adv-x="812" d="M54 874v80l184 4q82 6 178 18v-224q92 226 234 226t152 -124q0 -122 -108 -132q-96 4 -122 94q-2 12 -12 12q-58 0 -144 -204v-444q0 -110 120 -114v-66h-446v66q118 4 118 114v596q-6 94 -154 98z" />
<glyph unicode="s" horiz-adv-x="904" d="M88 702q0 126 102 204q100 78 272 78q190 0 292 -104v-212h-88q-40 168 -82 204q-54 36 -136 36q-134 -14 -144 -120q0 -106 258 -188q256 -94 264 -280q0 -324 -394 -324q-232 0 -328 96v248h92q38 -146 70 -200q28 -48 158 -64q206 8 210 176q0 78 -68 134 q-68 58 -204 90q-266 68 -274 226z" />
<glyph unicode="t" horiz-adv-x="604" d="M0 874v80q190 42 234 270h120v-270h192v-80h-192v-654q0 -76 52 -92q72 4 116 44l52 -60q-86 -116 -210 -116q-214 4 -214 206v672h-150z" />
<glyph unicode="u" horiz-adv-x="1192" d="M30 874v80l184 4q82 6 176 18v-648q0 -204 160 -204q136 0 256 154v498q-10 96 -156 98v80q44 0 96 2q36 0 88 2q82 6 178 18v-778q8 -92 154 -98v-78q-98 0 -182 -6q-38 -2 -88 -8q-10 0 -22 -2q-10 0 -22 -2l-46 -4v148q-132 -150 -320 -152q-152 4 -226 82 q-76 82 -76 242v456q-10 96 -154 98z" />
<glyph unicode="v" horiz-adv-x="990" d="M-44 888v66h450v-66q-76 -4 -76 -86l4 -50l168 -446l210 446q16 44 16 72q0 62 -80 64v66h328v-66q-78 -2 -182 -224l-308 -664h-66l-260 664q-104 220 -204 224z" />
<glyph unicode="w" horiz-adv-x="1376" d="M-40 888v66h452v-66q-110 -2 -110 -64l170 -484l238 608l306 -612l150 486q0 62 -118 66v66h368v-66q-80 -2 -124 -116l-270 -772h-64l-284 588l-232 -588h-66l-268 772q-44 112 -148 116z" />
<glyph unicode="x" horiz-adv-x="1022" d="M-10 0v66q172 4 252 116l180 254l-240 336q-80 112 -192 116v66h442v-66q-78 -2 -78 -68l148 -206l148 208q0 64 -68 66v66h430v-66q-180 -4 -260 -116l-182 -254l240 -336q80 -112 202 -116v-66h-442v66q70 4 70 38q0 24 -34 76l-114 160l-116 -160q-32 -44 -32 -74 q0 -36 76 -40v-66h-430z" />
<glyph unicode="y" horiz-adv-x="1002" d="M-134 -278q18 112 134 114q88 0 144 -44q22 -20 52 -20q34 0 70 30q116 86 182 274l-230 588q-104 220 -204 224v66h450v-66q-76 -4 -76 -86q0 -22 6 -50l168 -446l208 446q18 42 18 72q0 60 -82 64v66h328v-66q-78 -4 -180 -224l-246 -540q-246 -544 -582 -544h-6 q-154 10 -154 142z" />
<glyph unicode="z" horiz-adv-x="874" d="M88 0v110l452 762h-242q-88 -34 -108 -232h-90v314h684v-84l-468 -788h272q86 20 106 232h92v-314h-698z" />
<glyph unicode="{" horiz-adv-x="648" d="M92 712q0 36 46 36q16 0 48 -6q40 0 40 112q0 88 -36 342q0 278 366 278v-50q-124 -10 -124 -218q0 -56 20 -214q0 -236 -214 -282q214 -46 214 -280q-20 -158 -20 -212q0 -210 124 -220v-50q-366 0 -366 278q36 256 36 344q0 110 -42 110q-26 -6 -44 -6q-48 0 -48 38z " />
<glyph unicode="|" horiz-adv-x="490" d="M196 0v1420h98v-1420h-98z" />
<glyph unicode="}" horiz-adv-x="648" d="M92 -2q124 10 124 220q0 30 -4 78q-4 58 -14 134q0 234 214 280q-214 46 -214 282q10 76 14 136q4 48 4 78q0 208 -124 218v50q366 0 366 -278q-36 -254 -36 -342q0 -112 40 -112q34 6 48 6q46 0 46 -36q0 -38 -46 -38q-16 0 -46 6q-42 0 -42 -110q0 -88 36 -344 q0 -278 -366 -278v50z" />
<glyph unicode="~" d="M166 576q8 132 116 200q26 16 76 16q98 0 278 -56q140 -44 218 -44q76 0 88 44q14 56 40 56q8 0 22 -10q-8 -136 -114 -200q-26 -16 -74 -16q-100 0 -280 56q-144 42 -218 42q-78 0 -90 -42q-16 -58 -38 -58q-12 0 -24 12z" />
<glyph unicode="&#xa1;" horiz-adv-x="478" d="M88 -304q4 124 98 846h106q94 -722 98 -846q0 -188 -152 -188q-150 0 -150 188zM122 840q0 46 34 80q32 32 82 32t82 -32q34 -34 34 -80q0 -44 -34 -78t-82 -34t-82 34t-34 78z" />
<glyph unicode="&#xa2;" horiz-adv-x="952" d="M46 644q6 202 112 354q106 148 336 150q54 0 124 -14l70 190h102l-84 -224q38 -20 80 -62q76 -88 76 -164l-4 -36q-28 -94 -124 -94q-58 0 -98 40q-24 24 -32 48q-8 18 -8 42q0 54 38 92l32 28q4 4 4 8l-2 8q-12 20 -88 24q-4 2 -10 2h-30q-102 -4 -174 -100 q-66 -84 -66 -286q0 -164 40 -250q4 -10 12 -22q0 -2 2 -4l10 -16q14 -18 44 -44q60 -54 132 -54q124 0 200 106q26 36 40 74l94 -36q-30 -66 -62 -106q-116 -152 -350 -152q-68 4 -112 16l-64 -168h-100l78 204q-62 36 -110 104q-108 154 -108 342z" />
<glyph unicode="&#xa3;" horiz-adv-x="1148" d="M98 0v66h6q154 130 154 256q0 48 -10 124h-142v98h118q0 4 -2 8q0 6 -2 8q-60 220 -60 378q0 498 454 498q416 -16 416 -396q-6 -156 -138 -156q-106 0 -116 102q0 92 60 146q38 32 38 70q0 32 -54 86q-50 56 -178 66q-296 0 -296 -362q0 -152 60 -390q8 -26 12 -58h342 v-98h-332v-8q0 -204 -172 -330h432q270 0 270 260h92v-368h-952z" />
<glyph unicode="&#xa4;" horiz-adv-x="862" d="M98 242l116 116q-60 70 -60 160q0 92 60 160l-116 116l68 68l122 -124q64 36 142 36q82 0 144 -36l122 124l68 -68l-118 -118q60 -68 60 -158q0 -88 -60 -158l118 -118l-68 -68l-122 124q-62 -36 -144 -36q-78 0 -142 36l-122 -124zM240 518q0 -72 56 -124 q56 -54 134 -54t134 54q56 52 56 124t-56 126q-56 52 -134 52t-134 -52q-56 -54 -56 -126z" />
<glyph unicode="&#xa5;" horiz-adv-x="1076" d="M-30 1354v66h428v-66q-84 -2 -84 -66q0 -22 14 -48l258 -502l250 502q14 26 14 48q0 64 -84 66v66h340v-66q-80 -2 -140 -116l-290 -574h202v-96h-232v-198h232v-94h-232v-96q0 -112 146 -114v-66h-500v66q148 4 148 114v96h-242v94h242v198h-242v96h210l-316 574 q-66 114 -122 116z" />
<glyph unicode="&#xa6;" horiz-adv-x="490" d="M196 196h98v-610h-98v610zM196 864v610h98v-610h-98z" />
<glyph unicode="&#xa7;" horiz-adv-x="1160" d="M58 628q8 216 226 360q-36 64 -42 138q0 346 450 346q378 -6 384 -266q-20 -122 -130 -122q-110 6 -114 112q4 76 24 100q-6 70 -168 78q-216 -6 -222 -208q6 -102 320 -248t314 -450q-10 -208 -198 -340q66 -82 76 -192q-8 -336 -450 -336q-376 6 -384 236 q0 152 130 152q110 -6 116 -112q0 -40 -26 -100q0 -34 44 -54q60 -22 126 -22q210 2 220 196q-6 100 -350 268q-342 170 -346 464zM286 672q10 -166 232 -288l284 -158q68 60 72 196q-10 168 -232 290q-188 104 -278 164q-74 -66 -78 -204z" />
<glyph unicode="&#xa8;" horiz-adv-x="690" d="M106 1176q0 96 98 96q96 0 96 -96q0 -92 -96 -92q-98 0 -98 92zM390 1176q0 96 98 96q96 0 96 -96q0 -92 -96 -92q-98 0 -98 92z" />
<glyph unicode="&#xa9;" horiz-adv-x="1616" d="M34 710q0 320 226 542q228 222 548 222q322 0 546 -222q228 -222 228 -542t-232 -542q-230 -222 -552 -222q-320 0 -542 222t-222 542zM124 710q0 -282 200 -482t484 -200q282 0 482 200t200 482q0 284 -200 482q-200 200 -482 200q-284 0 -484 -200q-200 -198 -200 -482 zM430 706q0 206 116 328q120 130 278 130q124 0 204 -52v40h102v-318h-98q-18 122 -58 180q-36 52 -120 52q-82 0 -150 -98q-72 -102 -72 -262q0 -162 70 -260q64 -88 156 -88q108 4 162 58q64 64 78 138h88q-24 -120 -106 -208q-88 -88 -250 -88q-176 0 -288 120 q-112 122 -112 328z" />
<glyph unicode="&#xaa;" horiz-adv-x="770" d="M64 984q0 122 132 158q128 36 242 52v84q-10 58 -56 58q-48 0 -54 -30q-12 -46 -50 -78q-26 -20 -62 -20q-92 0 -92 84q2 58 82 92q70 32 142 32q252 -4 260 -196v-310q4 -16 18 -16l24 4l58 -38q-62 -66 -134 -68q-72 0 -106 32q-64 -32 -160 -32q-92 0 -162 42 q-74 46 -82 150zM226 996q4 -120 124 -120q54 0 82 26v200q-42 -6 -140 -32q-66 -18 -66 -74z" />
<glyph unicode="&#xab;" horiz-adv-x="1126" d="M54 518l466 474v-122l-330 -352l330 -352v-122zM466 518l466 474v-122l-330 -352l330 -352v-122z" />
<glyph unicode="&#xac;" d="M148 470v96h876v-486h-96v390h-780z" />
<glyph unicode="&#xad;" horiz-adv-x="798" d="M78 488v96h642v-96h-642z" />
<glyph unicode="&#xae;" horiz-adv-x="1616" d="M34 710q0 320 226 542q228 222 548 222q322 0 546 -222q228 -222 228 -542q-22 -308 -262 -394q-68 -24 -126 -24q-146 0 -218 164q-100 226 -172 226q-78 0 -96 -6v-194q0 -108 92 -108v-80h-354v80q88 0 88 48v636q0 46 -88 50v78h412q296 0 296 -234q0 -224 -216 -224 q178 -22 250 -198q48 -124 114 -124q32 0 64 24q102 76 124 280q0 284 -200 482q-200 200 -482 200q-284 0 -484 -200q-200 -198 -200 -482q0 -282 200 -482t484 -200q274 0 474 190l2 2l60 -66q-224 -208 -536 -208q-320 0 -548 222q-226 222 -226 542zM708 768h130 q136 18 136 162t-136 162h-130v-324z" />
<glyph unicode="&#xaf;" horiz-adv-x="602" d="M30 1100v96h544v-96h-544z" />
<glyph unicode="&#xb0;" horiz-adv-x="430" d="M20 1234q0 84 56 140t140 56q80 0 138 -58q56 -56 56 -138q0 -80 -58 -138q-56 -56 -138 -56q-84 0 -138 56q-56 56 -56 138zM96 1234q0 -50 34 -84q38 -34 86 -34t82 34q36 34 36 84q0 52 -36 84q-34 34 -82 34t-86 -34q-34 -34 -34 -84z" />
<glyph unicode="&#xb1;" d="M146 0h876v-96h-876v96zM148 470v96h390v390h94v-390h392v-96h-392v-390h-94v390h-390z" />
<glyph unicode="&#xb2;" horiz-adv-x="878" d="M150 522v78q0 154 204 238q178 72 178 224q0 108 -128 108q-76 0 -86 -30q0 -10 28 -34q28 -22 28 -64q-12 -72 -96 -74q-110 0 -114 106q4 66 46 106q76 76 226 76q290 0 294 -226q0 -192 -240 -250q-206 -50 -206 -110h440v-148h-574z" />
<glyph unicode="&#xb3;" horiz-adv-x="878" d="M124 776q6 112 116 112q100 0 100 -86q0 -54 -46 -94q-18 -14 -18 -28q14 -68 128 -72q84 0 134 56q34 40 34 116q0 216 -260 218v84q180 60 180 168q0 44 -24 70q-36 44 -94 44q-54 0 -60 -18q0 -2 16 -12q50 -26 50 -66q0 -72 -90 -78q-100 6 -102 98q0 50 30 86 q72 72 200 72q126 0 208 -70q68 -56 68 -142q0 -140 -104 -176q162 -32 162 -260q0 -92 -68 -166q-98 -114 -264 -114q-186 10 -254 130q-42 76 -42 128z" />
<glyph unicode="&#xb4;" horiz-adv-x="488" d="M102 1048q54 200 88 250l4 6q36 42 84 42q36 0 68 -24q44 -32 44 -86q0 -36 -22 -64q-38 -42 -222 -154z" />
<glyph unicode="&#xb5;" horiz-adv-x="1150" d="M-6 874v80l184 4q82 6 176 18v-710q12 -174 160 -174q136 0 256 156v528q-10 96 -156 98v80l184 4q82 6 178 18v-798q0 -62 36 -62q30 0 92 46v-68q-90 -96 -210 -96q-100 0 -120 116q-136 -148 -324 -148q-46 0 -96 10v-216q0 -110 130 -114v-66h-454v66q118 4 118 114 v1016q-10 96 -154 98z" />
<glyph unicode="&#xb6;" horiz-adv-x="1084" d="M98 1026q0 386 468 394h478v-100q-166 0 -166 -112v-1458q2 -100 146 -104v-66h-246v1740h-94v-1740h-246v66q136 2 146 102v884q-486 4 -486 394z" />
<glyph unicode="&#xb7;" horiz-adv-x="496" d="M92 710q0 40 26 66q30 30 70 30q42 0 72 -30q28 -28 28 -66q0 -36 -28 -68q-28 -26 -72 -26q-42 0 -70 26q-26 28 -26 68z" />
<glyph unicode="&#xb8;" horiz-adv-x="594" d="M98 -358l42 76q38 -32 106 -32q120 0 120 86q0 44 -48 62q-30 14 -112 14l46 162h90l-24 -88q178 0 178 -150q0 -160 -214 -160q-106 0 -184 30z" />
<glyph unicode="&#xb9;" horiz-adv-x="878" d="M174 962v80q194 16 268 168h116v-558q0 -44 80 -46l68 2v-86h-502v86l74 -2q74 2 74 46v310h-178z" />
<glyph unicode="&#xba;" horiz-adv-x="800" d="M64 1098q0 316 336 316t336 -316t-336 -316t-336 316zM236 1094q4 -222 166 -222t162 222v6q-2 224 -166 224q-162 0 -162 -222v-8z" />
<glyph unicode="&#xbb;" horiz-adv-x="1126" d="M196 44v122l330 352l-330 352v122l466 -474zM608 44v122l330 352l-330 352v122l466 -474z" />
<glyph unicode="&#xbc;" horiz-adv-x="1954" d="M174 1166v80q194 16 268 168h116v-558q0 -44 80 -46h68v-86h-502v86l74 -2q74 2 74 48v310h-178zM542 0l854 1418h100l-856 -1418h-98zM1202 186v106l414 540h126v-526h86v-120h-86v-186h-172v186h-368zM1366 306h204v278z" />
<glyph unicode="&#xbd;" horiz-adv-x="1954" d="M174 1166v80q194 16 268 168h116v-558q0 -44 80 -46h68v-86h-502v86l74 -2q74 2 74 48v310h-178zM512 0l854 1418h100l-854 -1418h-100zM1226 0v78q0 154 204 238q178 72 178 226q0 108 -128 108q-76 0 -86 -30q0 -12 28 -36q28 -22 28 -64q-12 -68 -96 -74 q-110 0 -114 106q4 68 46 108q74 74 226 74q290 0 294 -226q0 -192 -240 -250q-206 -50 -206 -110h440v-148h-574z" />
<glyph unicode="&#xbe;" horiz-adv-x="1954" d="M124 744q6 112 116 112q100 0 100 -86q0 -56 -46 -96q-18 -14 -18 -26q14 -68 128 -74q84 0 134 56q34 40 34 116q0 216 -260 218v84q180 60 180 168q0 44 -24 70q-36 46 -94 46q-54 0 -60 -18q0 -2 16 -12q50 -26 50 -68q0 -68 -90 -78q-100 10 -102 98q0 54 30 86 q72 74 200 74t208 -72q68 -56 68 -140q0 -140 -104 -178q162 -30 162 -258q0 -94 -68 -168q-100 -112 -264 -112q-186 6 -254 128q-42 76 -42 130zM600 0l854 1418h100l-854 -1418h-100zM1202 186v106l414 540h126v-526h86v-120h-86v-186h-172v186h-368zM1366 306h204v278z " />
<glyph unicode="&#xbf;" horiz-adv-x="856" d="M50 -152q4 220 174 394q152 156 174 304h68q-10 -210 -128 -380q-124 -176 -128 -344q0 -248 230 -248q106 4 150 62q28 38 28 72q0 24 -12 44q-48 46 -48 116q6 82 90 82q96 0 112 -124q0 -140 -96 -228q-100 -90 -276 -90q-338 2 -338 340zM326 840q0 48 32 80t84 32 q50 0 82 -32q34 -34 34 -80q0 -44 -34 -78t-82 -34q-50 0 -84 34q-32 32 -32 78z" />
<glyph unicode="&#xc0;" horiz-adv-x="1254" d="M-20 0v66q62 2 128 160l452 1194h130l456 -1194q66 -158 128 -160v-66h-512v66q148 0 148 116q0 30 -12 74l-62 190h-498l-70 -190q-12 -42 -12 -74q0 -112 138 -116v-66h-414zM380 552h414l-206 620zM436 1702q0 54 44 86q30 24 68 24q48 0 84 -42l4 -6q34 -46 88 -250 l-44 -30q-184 112 -222 154q-22 28 -22 64z" />
<glyph unicode="&#xc1;" horiz-adv-x="1254" d="M-20 0v66q62 2 128 160l452 1194h130l456 -1194q66 -158 128 -160v-66h-512v66q148 0 148 116q0 30 -12 74l-62 190h-498l-70 -190q-12 -42 -12 -74q0 -112 138 -116v-66h-414zM380 552h414l-206 620zM532 1514q54 200 88 250l4 6q36 42 84 42q36 0 68 -24q44 -32 44 -86 q0 -36 -22 -64q-38 -42 -222 -154z" />
<glyph unicode="&#xc2;" horiz-adv-x="1254" d="M-20 0v66q62 2 128 160l452 1194h130l456 -1194q66 -158 128 -160v-66h-512v66q148 0 148 116q0 30 -12 74l-62 190h-498l-70 -190q-12 -42 -12 -74q0 -112 138 -116v-66h-414zM372 1554q0 8 2 12l254 250l252 -250q2 -4 2 -12q0 -24 -34 -24q-12 0 -20 2l-200 114 l-202 -114q-4 -2 -10 -2h-10q-34 0 -34 24zM380 552h414l-206 620z" />
<glyph unicode="&#xc3;" horiz-adv-x="1254" d="M-20 0v66q62 2 128 160l452 1194h130l456 -1194q66 -158 128 -160v-66h-512v66q148 0 148 116q0 30 -12 74l-62 190h-498l-70 -190q-12 -42 -12 -74q0 -112 138 -116v-66h-414zM380 552h414l-206 620zM398 1560q10 126 100 182q22 14 70 14q38 0 96 -58t80 -58 q50 0 58 38q14 50 36 50q10 0 20 -10q-10 -126 -102 -182q-20 -14 -66 -14q-40 0 -98 58t-80 58q-52 0 -60 -38q-14 -50 -36 -50q-8 0 -18 10z" />
<glyph unicode="&#xc4;" horiz-adv-x="1254" d="M-20 0v66q62 2 128 160l452 1194h130l456 -1194q66 -158 128 -160v-66h-512v66q148 0 148 116q0 30 -12 74l-62 190h-498l-70 -190q-12 -42 -12 -74q0 -112 138 -116v-66h-414zM380 552h414l-206 620zM388 1642q0 96 98 96q96 0 96 -96q0 -92 -96 -92q-98 0 -98 92z M672 1642q0 96 98 96q96 0 96 -96q0 -92 -96 -92q-98 0 -98 92z" />
<glyph unicode="&#xc5;" horiz-adv-x="1254" d="M-20 0v66q62 2 128 160l452 1194h130l456 -1194q66 -158 128 -160v-66h-512v66q148 0 148 116q0 30 -12 74l-62 190h-498l-70 -190q-12 -42 -12 -74q0 -112 138 -116v-66h-414zM380 552h414l-206 620zM454 1634q0 74 50 124t122 50q74 0 124 -50q52 -52 52 -124t-52 -124 q-50 -48 -124 -48q-70 0 -122 48q-50 50 -50 124zM530 1634q0 -96 96 -96q98 0 98 96q0 40 -28 68q-30 30 -70 30t-68 -30q-28 -28 -28 -68z" />
<glyph unicode="&#xc6;" horiz-adv-x="1706" d="M-20 0v66q62 2 128 160l442 1168v26h1034v-376h-92q0 268 -278 268h-310v-524h326q110 0 112 108h78v-314h-78q-2 98 -112 98h-326v-572h382q270 0 270 268h92v-376h-1098v66q148 4 148 114v266h-360l-70 -190q-12 -42 -12 -74q0 -112 138 -116v-66h-414zM380 552h318 v760h-36z" />
<glyph unicode="&#xc7;" horiz-adv-x="1314" d="M98 708q0 336 186 530q186 200 428 200q196 0 286 -60q36 -24 58 -24q38 0 38 66h88v-466h-86q-24 178 -96 284q-72 104 -238 104q-164 0 -288 -180q-122 -176 -122 -454q0 -276 118 -446q118 -166 300 -166q192 2 304 112q112 112 132 216h60q-30 -158 -162 -294 q-128 -132 -380 -136l-20 -72q176 0 176 -150q0 -160 -214 -160q-102 0 -184 30l42 76q40 -32 106 -32q120 0 120 86q0 44 -46 62q-34 14 -114 14l44 152q-214 28 -358 180q-178 196 -178 528z" />
<glyph unicode="&#xc8;" horiz-adv-x="1214" d="M48 0v66q148 4 148 114v1060q0 110 -148 114v66h1034v-376h-92q0 268 -278 268h-310v-524h326q110 0 112 108h78v-314h-78q-2 98 -112 98h-326v-490q0 -82 94 -82h288q270 0 270 268h92v-376h-1098zM406 1702q0 54 44 86q30 24 68 24q48 0 84 -42l4 -6q34 -46 88 -250 l-44 -30q-184 112 -222 154q-22 28 -22 64z" />
<glyph unicode="&#xc9;" horiz-adv-x="1214" d="M48 0v66q148 4 148 114v1060q0 110 -148 114v66h1034v-376h-92q0 268 -278 268h-310v-524h326q110 0 112 108h78v-314h-78q-2 98 -112 98h-326v-490q0 -82 94 -82h288q270 0 270 268h92v-376h-1098zM502 1514q54 200 88 250l4 6q36 42 84 42q36 0 68 -24q44 -32 44 -86 q0 -36 -22 -64q-38 -42 -222 -154z" />
<glyph unicode="&#xca;" horiz-adv-x="1214" d="M48 0v66q148 4 148 114v1060q0 110 -148 114v66h1034v-376h-92q0 268 -278 268h-310v-524h326q110 0 112 108h78v-314h-78q-2 98 -112 98h-326v-490q0 -82 94 -82h288q270 0 270 268h92v-376h-1098zM342 1554q0 8 2 12l254 250l252 -250q2 -4 2 -12q0 -24 -34 -24 q-12 0 -20 2l-200 114l-202 -114q-4 -2 -10 -2h-10q-34 0 -34 24z" />
<glyph unicode="&#xcb;" horiz-adv-x="1214" d="M48 0v66q148 4 148 114v1060q0 110 -148 114v66h1034v-376h-92q0 268 -278 268h-310v-524h326q110 0 112 108h78v-314h-78q-2 98 -112 98h-326v-490q0 -82 94 -82h288q270 0 270 268h92v-376h-1098zM358 1642q0 96 98 96q96 0 96 -96q0 -92 -96 -92q-98 0 -98 92z M642 1642q0 96 98 96q96 0 96 -96q0 -92 -96 -92q-98 0 -98 92z" />
<glyph unicode="&#xcc;" horiz-adv-x="606" d="M48 0v66q148 4 148 114v1060q0 110 -148 114v66h508v-66q-154 -4 -154 -114v-1060q0 -110 154 -114v-66h-508zM110 1702q0 54 44 86q30 24 68 24q48 0 84 -42l4 -6q34 -46 88 -250l-44 -30q-184 112 -222 154q-22 28 -22 64z" />
<glyph unicode="&#xcd;" horiz-adv-x="606" d="M48 0v66q148 4 148 114v1060q0 110 -148 114v66h508v-66q-154 -4 -154 -114v-1060q0 -110 154 -114v-66h-508zM206 1514q54 200 88 250l4 6q36 42 84 42q36 0 68 -24q44 -32 44 -86q0 -36 -22 -64q-38 -42 -222 -154z" />
<glyph unicode="&#xce;" horiz-adv-x="606" d="M48 0v66q148 4 148 114v1060q0 110 -148 114v66h508v-66q-154 -4 -154 -114v-1060q0 -110 154 -114v-66h-508zM54 1554q0 8 2 12l254 250l252 -250q2 -4 2 -12q0 -24 -34 -24q-12 0 -20 2l-200 114l-202 -114q-4 -2 -10 -2h-10q-34 0 -34 24z" />
<glyph unicode="&#xcf;" horiz-adv-x="606" d="M48 0v66q148 4 148 114v1060q0 110 -148 114v66h508v-66q-154 -4 -154 -114v-1060q0 -110 154 -114v-66h-508zM70 1642q0 96 98 96q96 0 96 -96q0 -92 -96 -92q-98 0 -98 92zM354 1642q0 96 98 96q96 0 96 -96q0 -92 -96 -92q-98 0 -98 92z" />
<glyph unicode="&#xd0;" horiz-adv-x="1356" d="M40 0v66q146 2 146 114v480h-146v100h146v480q0 112 -146 114v66h530q340 -10 514 -194q174 -186 174 -524q0 -320 -174 -506q-176 -188 -514 -196h-530zM392 98q20 -2 60 -2q46 -2 108 -2q218 2 346 172q130 172 130 430q0 272 -130 456q-126 180 -346 180 q-124 0 -168 -4v-568h398v-100h-398v-562z" />
<glyph unicode="&#xd1;" horiz-adv-x="1376" d="M58 0v66q98 2 98 114v962q0 210 -98 212v66h184l838 -1022v842q0 110 -196 114v66h434v-66q-108 -2 -108 -114v-1240h-80l-842 982v-802q0 -110 204 -114v-66h-434zM458 1560q10 126 100 182q22 14 70 14q38 0 96 -58t80 -58q50 0 58 38q14 50 36 50q10 0 20 -10 q-10 -126 -102 -182q-20 -14 -66 -14q-40 0 -98 58t-80 58q-52 0 -60 -38q-14 -50 -36 -50q-8 0 -18 10z" />
<glyph unicode="&#xd2;" horiz-adv-x="1484" d="M92 702q0 334 160 534q162 198 478 198q338 0 500 -198q160 -200 160 -534q0 -322 -162 -518q-158 -198 -478 -198q-334 0 -496 198q-162 196 -162 518zM330 702q6 -292 122 -458q116 -170 298 -170q192 0 296 164q106 166 106 464q-6 296 -120 464q-116 168 -302 168 q-190 0 -294 -164q-106 -166 -106 -468zM550 1702q0 54 44 86q30 24 68 24q48 0 84 -42l4 -6q34 -46 88 -250l-44 -30q-184 112 -222 154q-22 28 -22 64z" />
<glyph unicode="&#xd3;" horiz-adv-x="1484" d="M92 702q0 334 160 534q162 198 478 198q338 0 500 -198q160 -200 160 -534q0 -322 -162 -518q-158 -198 -478 -198q-334 0 -496 198q-162 196 -162 518zM330 702q6 -292 122 -458q116 -170 298 -170q192 0 296 164q106 166 106 464q-6 296 -120 464q-116 168 -302 168 q-190 0 -294 -164q-106 -166 -106 -468zM646 1514q54 200 88 250l4 6q36 42 84 42q36 0 68 -24q44 -32 44 -86q0 -36 -22 -64q-38 -42 -222 -154z" />
<glyph unicode="&#xd4;" horiz-adv-x="1484" d="M92 702q0 334 160 534q162 198 478 198q338 0 500 -198q160 -200 160 -534q0 -322 -162 -518q-158 -198 -478 -198q-334 0 -496 198q-162 196 -162 518zM330 702q6 -292 122 -458q116 -170 298 -170q192 0 296 164q106 166 106 464q-6 296 -120 464q-116 168 -302 168 q-190 0 -294 -164q-106 -166 -106 -468zM486 1554q0 8 2 12l254 250l252 -250q2 -4 2 -12q0 -24 -34 -24q-12 0 -20 2l-200 114l-202 -114q-4 -2 -10 -2h-10q-34 0 -34 24z" />
<glyph unicode="&#xd5;" horiz-adv-x="1484" d="M92 702q0 334 160 534q162 198 478 198q338 0 500 -198q160 -200 160 -534q0 -322 -162 -518q-158 -198 -478 -198q-334 0 -496 198q-162 196 -162 518zM330 702q6 -292 122 -458q116 -170 298 -170q192 0 296 164q106 166 106 464q-6 296 -120 464q-116 168 -302 168 q-190 0 -294 -164q-106 -166 -106 -468zM512 1560q10 126 100 182q22 14 70 14q38 0 96 -58t80 -58q50 0 58 38q14 50 36 50q10 0 20 -10q-10 -126 -102 -182q-20 -14 -66 -14q-40 0 -98 58t-80 58q-52 0 -60 -38q-14 -50 -36 -50q-8 0 -18 10z" />
<glyph unicode="&#xd6;" horiz-adv-x="1484" d="M92 702q0 334 160 534q162 198 478 198q338 0 500 -198q160 -200 160 -534q0 -322 -162 -518q-158 -198 -478 -198q-334 0 -496 198q-162 196 -162 518zM330 702q6 -292 122 -458q116 -170 298 -170q192 0 296 164q106 166 106 464q-6 296 -120 464q-116 168 -302 168 q-190 0 -294 -164q-106 -166 -106 -468zM502 1642q0 96 98 96q96 0 96 -96q0 -92 -96 -92q-98 0 -98 92zM786 1642q0 96 98 96q96 0 96 -96q0 -92 -96 -92q-98 0 -98 92z" />
<glyph unicode="&#xd7;" d="M242 242l276 276l-276 276l68 68l274 -278l278 278l66 -68l-276 -276l276 -276l-66 -68l-278 278l-274 -278z" />
<glyph unicode="&#xd8;" horiz-adv-x="1484" d="M92 698q0 336 160 536q162 196 490 196q136 0 238 -32l42 102h100l-56 -136q92 -46 164 -130q160 -200 160 -536q0 -320 -162 -518q-160 -196 -486 -196q-136 0 -238 32l-42 -102h-96l-4 2l56 134q-92 46 -164 130q-162 198 -162 518zM332 704q2 -290 120 -458 q6 -6 8 -10l8 -10q8 -12 14 -20l446 1070q-86 60 -198 60q-188 0 -292 -164q-106 -166 -106 -468zM554 138q86 -62 200 -62q188 0 292 164q106 166 106 464q-2 296 -120 464q-20 28 -32 40z" />
<glyph unicode="&#xd9;" horiz-adv-x="1402" d="M16 1354v66h508v-66q-154 -4 -154 -214v-612q0 -410 374 -410q356 0 356 404v618q0 210 -148 214v66h434v-66q-156 -2 -156 -116v-738q0 -222 -132 -370q-132 -144 -408 -144q-278 0 -402 144q-124 148 -124 360v748q0 112 -148 116zM510 1702q0 54 44 86q30 24 68 24 q48 0 84 -42l4 -6q34 -46 88 -250l-44 -30q-184 112 -222 154q-22 28 -22 64z" />
<glyph unicode="&#xda;" horiz-adv-x="1402" d="M16 1354v66h508v-66q-154 -4 -154 -214v-612q0 -410 374 -410q356 0 356 404v618q0 210 -148 214v66h434v-66q-156 -2 -156 -116v-738q0 -222 -132 -370q-132 -144 -408 -144q-278 0 -402 144q-124 148 -124 360v748q0 112 -148 116zM604 1514q54 200 88 250l4 6 q36 42 84 42q36 0 68 -24q44 -32 44 -86q0 -36 -22 -64q-38 -42 -222 -154z" />
<glyph unicode="&#xdb;" horiz-adv-x="1402" d="M16 1354v66h508v-66q-154 -4 -154 -214v-612q0 -410 374 -410q356 0 356 404v618q0 210 -148 214v66h434v-66q-156 -2 -156 -116v-738q0 -222 -132 -370q-132 -144 -408 -144q-278 0 -402 144q-124 148 -124 360v748q0 112 -148 116zM446 1554q0 8 2 12l254 250l252 -250 q2 -4 2 -12q0 -24 -34 -24q-12 0 -20 2l-200 114l-202 -114q-4 -2 -10 -2h-10q-34 0 -34 24z" />
<glyph unicode="&#xdc;" horiz-adv-x="1402" d="M16 1354v66h508v-66q-154 -4 -154 -214v-612q0 -410 374 -410q356 0 356 404v618q0 210 -148 214v66h434v-66q-156 -2 -156 -116v-738q0 -222 -132 -370q-132 -144 -408 -144q-278 0 -402 144q-124 148 -124 360v748q0 112 -148 116zM462 1642q0 96 98 96q96 0 96 -96 q0 -92 -96 -92q-98 0 -98 92zM746 1642q0 96 98 96q96 0 96 -96q0 -92 -96 -92q-98 0 -98 92z" />
<glyph unicode="&#xdd;" horiz-adv-x="1076" d="M-30 1354v66h428v-66q-84 -2 -84 -66q0 -22 14 -48l258 -502l250 502q14 26 14 48q0 64 -84 66v66h340v-66q-80 -2 -140 -116l-320 -636v-422q0 -112 146 -114v-66h-500v66q148 4 148 114v426l-348 632q-66 114 -122 116zM442 1514q54 200 88 250l4 6q36 42 84 42 q36 0 68 -24q44 -32 44 -86q0 -36 -22 -64q-38 -42 -222 -154z" />
<glyph unicode="&#xde;" horiz-adv-x="1156" d="M30 0v66q146 2 146 114v1060q0 112 -146 114v66h508v-66q-156 -2 -156 -114v-142q698 -2 698 -374q-2 -382 -698 -384v-160q0 -110 156 -114v-66h-508zM382 424q462 12 462 300q0 278 -462 290v-590z" />
<glyph unicode="&#xdf;" horiz-adv-x="1108" d="M48 854v102h132v140q0 358 346 376h54q370 0 372 -264q0 -98 -112 -222t-112 -196q0 -78 176 -192q136 -88 136 -252q-2 -348 -386 -348q-98 0 -184 44l14 36q42 -14 92 -14q76 0 138 36q100 70 100 234q-2 162 -144 264q-140 102 -140 212q0 88 104 174t104 198 q0 208 -182 208q-170 -2 -170 -228v-1162h-326v70q120 0 120 114v670h-132z" />
<glyph unicode="&#xe0;" horiz-adv-x="1022" d="M88 252q0 254 252 292q250 42 324 124v114q-14 122 -112 122q-96 0 -112 -70t-68 -116q-36 -30 -78 -30q-112 4 -112 114q2 86 110 134q106 48 208 48q362 -2 370 -298v-538q0 -44 32 -44q14 0 56 16l54 -40q-68 -80 -168 -84q-94 0 -154 62q-116 -62 -302 -62 q-296 26 -300 256zM284 262q8 -176 218 -176q90 0 154 58v414q-60 -54 -216 -98t-156 -198zM358 1236q0 54 44 86q30 24 68 24q48 0 84 -42l4 -6q34 -46 88 -250l-44 -30q-184 112 -222 154q-22 28 -22 64z" />
<glyph unicode="&#xe1;" horiz-adv-x="1022" d="M88 252q0 254 252 292q250 42 324 124v114q-14 122 -112 122q-96 0 -112 -70t-68 -116q-36 -30 -78 -30q-112 4 -112 114q2 86 110 134q106 48 208 48q362 -2 370 -298v-538q0 -44 32 -44q14 0 56 16l54 -40q-68 -80 -168 -84q-94 0 -154 62q-116 -62 -302 -62 q-296 26 -300 256zM284 262q8 -176 218 -176q90 0 154 58v414q-60 -54 -216 -98t-156 -198zM454 1048q54 200 88 250l4 6q36 42 84 42q36 0 68 -24q44 -32 44 -86q0 -36 -22 -64q-38 -42 -222 -154z" />
<glyph unicode="&#xe2;" horiz-adv-x="1022" d="M88 252q0 254 252 292q250 42 324 124v114q-14 122 -112 122q-96 0 -112 -70t-68 -116q-36 -30 -78 -30q-112 4 -112 114q2 86 110 134q106 48 208 48q362 -2 370 -298v-538q0 -44 32 -44q14 0 56 16l54 -40q-68 -80 -168 -84q-94 0 -154 62q-116 -62 -302 -62 q-296 26 -300 256zM284 262q8 -176 218 -176q90 0 154 58v414q-60 -54 -216 -98t-156 -198zM294 1088q0 8 2 12l254 250l252 -250q2 -4 2 -12q0 -24 -34 -24q-12 0 -20 2l-200 114l-202 -114q-4 -2 -10 -2h-10q-34 0 -34 24z" />
<glyph unicode="&#xe3;" horiz-adv-x="1022" d="M88 252q0 254 252 292q250 42 324 124v114q-14 122 -112 122q-96 0 -112 -70t-68 -116q-36 -30 -78 -30q-112 4 -112 114q2 86 110 134q106 48 208 48q362 -2 370 -298v-538q0 -44 32 -44q14 0 56 16l54 -40q-68 -80 -168 -84q-94 0 -154 62q-116 -62 -302 -62 q-296 26 -300 256zM284 262q8 -176 218 -176q90 0 154 58v414q-60 -54 -216 -98t-156 -198zM322 1094q10 126 100 182q22 14 70 14q38 0 96 -58t80 -58q50 0 58 38q14 50 36 50q10 0 20 -10q-10 -126 -102 -182q-20 -14 -66 -14q-40 0 -98 58t-80 58q-52 0 -60 -38 q-14 -50 -36 -50q-8 0 -18 10z" />
<glyph unicode="&#xe4;" horiz-adv-x="1022" d="M88 252q0 254 252 292q250 42 324 124v114q-14 122 -112 122q-96 0 -112 -70t-68 -116q-36 -30 -78 -30q-112 4 -112 114q2 86 110 134q106 48 208 48q362 -2 370 -298v-538q0 -44 32 -44q14 0 56 16l54 -40q-68 -80 -168 -84q-94 0 -154 62q-116 -62 -302 -62 q-296 26 -300 256zM284 262q8 -176 218 -176q90 0 154 58v414q-60 -54 -216 -98t-156 -198zM312 1176q0 96 98 96q96 0 96 -96q0 -92 -96 -92q-98 0 -98 92zM596 1176q0 96 98 96q96 0 96 -96q0 -92 -96 -92q-98 0 -98 92z" />
<glyph unicode="&#xe5;" horiz-adv-x="1022" d="M88 252q0 254 252 292q250 42 324 124v114q-14 122 -112 122q-96 0 -112 -70t-68 -116q-36 -30 -78 -30q-112 4 -112 114q2 86 110 134q106 48 208 48q362 -2 370 -298v-538q0 -44 32 -44q14 0 56 16l54 -40q-68 -80 -168 -84q-94 0 -154 62q-116 -62 -302 -62 q-296 26 -300 256zM284 262q8 -176 218 -176q90 0 154 58v414q-60 -54 -216 -98t-156 -198zM376 1168q0 74 50 124t122 50q74 0 124 -50q52 -52 52 -124t-52 -124q-50 -48 -124 -48q-70 0 -122 48q-50 50 -50 124zM452 1168q0 -96 96 -96q98 0 98 96q0 40 -28 68 q-30 30 -70 30t-68 -30q-28 -28 -28 -68z" />
<glyph unicode="&#xe6;" horiz-adv-x="1574" d="M92 252q0 254 252 292q254 42 324 124v114q-14 122 -112 122q-94 0 -110 -70t-70 -116q-32 -30 -76 -30q-112 4 -112 114q2 86 108 134t208 48q214 -4 302 -106q112 108 300 108q184 0 296 -124q110 -124 110 -342h-618q0 -204 70 -296q86 -110 220 -114q96 0 172 88 q44 46 68 102l58 -42q-32 -74 -86 -134q-104 -126 -290 -126q-218 4 -328 142q-152 -144 -384 -144q-298 28 -302 256zM290 262q8 -176 168 -176q138 0 272 128q-70 130 -70 292q0 32 2 48v4q-60 -54 -216 -98t-156 -198zM918 622h384q-8 248 -172 252q-170 0 -212 -252z " />
<glyph unicode="&#xe7;" horiz-adv-x="972" d="M84 500q10 484 478 486q144 -4 230 -62q94 -70 100 -178q0 -102 -104 -108q-118 10 -118 124q0 12 6 44q2 6 2 14v14q0 68 -94 68q-266 -2 -272 -400q4 -386 274 -390q174 0 264 192l56 -38q-100 -262 -368 -268l-22 -76q178 0 178 -150q0 -160 -214 -160q-106 0 -184 30 l42 76q38 -32 106 -32q120 0 120 86q0 44 -48 62q-30 14 -112 14l44 154q-358 46 -364 498z" />
<glyph unicode="&#xe8;" horiz-adv-x="974" d="M70 502q22 480 446 482q406 0 406 -474h-618q4 -402 260 -402q186 0 270 188l58 -40q-92 -250 -376 -260q-424 8 -446 506zM306 1236q0 54 44 86q30 24 68 24q48 0 84 -42l4 -6q34 -46 88 -250l-44 -30q-184 112 -222 154q-22 28 -22 64zM310 610h402q-8 276 -180 280 q-170 0 -222 -280z" />
<glyph unicode="&#xe9;" horiz-adv-x="974" d="M70 502q22 480 446 482q406 0 406 -474h-618q4 -402 260 -402q186 0 270 188l58 -40q-92 -250 -376 -260q-424 8 -446 506zM310 610h402q-8 276 -180 280q-170 0 -222 -280zM400 1048q54 200 88 250l4 6q36 42 84 42q36 0 68 -24q44 -32 44 -86q0 -36 -22 -64 q-38 -42 -222 -154z" />
<glyph unicode="&#xea;" horiz-adv-x="974" d="M70 502q22 480 446 482q406 0 406 -474h-618q4 -402 260 -402q186 0 270 188l58 -40q-92 -250 -376 -260q-424 8 -446 506zM240 1088q0 8 2 12l254 250l252 -250q2 -4 2 -12q0 -24 -34 -24q-12 0 -20 2l-200 114l-202 -114q-4 -2 -10 -2h-10q-34 0 -34 24zM310 610h402 q-8 276 -180 280q-170 0 -222 -280z" />
<glyph unicode="&#xeb;" horiz-adv-x="974" d="M70 502q22 480 446 482q406 0 406 -474h-618q4 -402 260 -402q186 0 270 188l58 -40q-92 -250 -376 -260q-424 8 -446 506zM258 1176q0 96 98 96q96 0 96 -96q0 -92 -96 -92q-98 0 -98 92zM310 610h402q-8 276 -180 280q-170 0 -222 -280zM542 1176q0 96 98 96 q96 0 96 -96q0 -92 -96 -92q-98 0 -98 92z" />
<glyph unicode="&#xec;" horiz-adv-x="612" d="M68 874v80l184 4q82 6 178 18v-796q0 -112 128 -114v-66h-454v66q120 4 120 114v596q-10 96 -156 98zM122 1236q0 54 44 86q30 24 68 24q48 0 84 -42l4 -6q34 -46 88 -250l-44 -30q-184 112 -222 154q-22 28 -22 64z" />
<glyph unicode="&#xed;" horiz-adv-x="612" d="M68 874v80l184 4q82 6 178 18v-796q0 -112 128 -114v-66h-454v66q120 4 120 114v596q-10 96 -156 98zM218 1048q54 200 88 250l4 6q36 42 84 42q36 0 68 -24q44 -32 44 -86q0 -36 -22 -64q-38 -42 -222 -154z" />
<glyph unicode="&#xee;" horiz-adv-x="612" d="M64 1088q0 8 2 12l254 250l252 -250q2 -4 2 -12q0 -24 -34 -24q-12 0 -20 2l-200 114l-202 -114q-4 -2 -10 -2h-10q-34 0 -34 24zM68 874v80l184 4q82 6 178 18v-796q0 -112 128 -114v-66h-454v66q120 4 120 114v596q-10 96 -156 98z" />
<glyph unicode="&#xef;" horiz-adv-x="612" d="M68 874v80l184 4q82 6 178 18v-796q0 -112 128 -114v-66h-454v66q120 4 120 114v596q-10 96 -156 98zM80 1176q0 96 98 96q96 0 96 -96q0 -92 -96 -92q-98 0 -98 92zM364 1176q0 96 98 96q96 0 96 -96q0 -92 -96 -92q-98 0 -98 92z" />
<glyph unicode="&#xf0;" horiz-adv-x="1158" d="M88 492q0 504 492 504q74 0 136 -12q-36 84 -92 174q-16 28 -32 50l-202 -114l-50 82l194 108q-86 102 -186 170h114q82 -28 184 -108l196 110l48 -82l-168 -94l42 -44q164 -164 236 -362q70 -198 70 -382q0 -504 -490 -504q-492 0 -492 504zM322 486q6 -400 262 -400 q252 0 252 400v8q-4 406 -260 406q-254 0 -254 -400v-14z" />
<glyph unicode="&#xf1;" horiz-adv-x="1156" d="M24 874v80q44 0 96 2q36 0 88 2q82 6 178 18v-140q132 148 340 148q280 0 280 -322v-482q0 -110 130 -114v-66h-446v66q112 4 112 114v474q0 204 -160 204q-140 0 -256 -152v-526q0 -110 120 -114v-66h-446v66q120 4 120 114v596q-10 96 -156 98zM350 1094 q10 126 100 182q22 14 70 14q38 0 96 -58t80 -58q50 0 58 38q14 50 36 50q10 0 20 -10q-10 -126 -102 -182q-20 -14 -66 -14q-40 0 -98 58t-80 58q-52 0 -60 -38q-14 -50 -36 -50q-8 0 -18 10z" />
<glyph unicode="&#xf2;" horiz-adv-x="1138" d="M88 490q0 494 482 494q478 0 478 -494t-478 -494q-482 0 -482 494zM300 498q6 -406 274 -406q264 0 264 400q-2 396 -272 396q-266 0 -266 -390zM378 1236q0 54 44 86q30 24 68 24q48 0 84 -42l4 -6q34 -46 88 -250l-44 -30q-184 112 -222 154q-22 28 -22 64z" />
<glyph unicode="&#xf3;" horiz-adv-x="1138" d="M88 490q0 494 482 494q478 0 478 -494t-478 -494q-482 0 -482 494zM300 498q6 -406 274 -406q264 0 264 400q-2 396 -272 396q-266 0 -266 -390zM474 1048q54 200 88 250l4 6q36 42 84 42q36 0 68 -24q44 -32 44 -86q0 -36 -22 -64q-38 -42 -222 -154z" />
<glyph unicode="&#xf4;" horiz-adv-x="1138" d="M88 490q0 494 482 494q478 0 478 -494t-478 -494q-482 0 -482 494zM300 498q6 -406 274 -406q264 0 264 400q-2 396 -272 396q-266 0 -266 -390zM314 1088q0 8 2 12l254 250l252 -250q2 -4 2 -12q0 -24 -34 -24q-12 0 -20 2l-200 114l-202 -114q-4 -2 -10 -2h-10 q-34 0 -34 24z" />
<glyph unicode="&#xf5;" horiz-adv-x="1138" d="M88 490q0 494 482 494q478 0 478 -494t-478 -494q-482 0 -482 494zM300 498q6 -406 274 -406q264 0 264 400q-2 396 -272 396q-266 0 -266 -390zM340 1094q10 126 100 182q22 14 70 14q38 0 96 -58t80 -58q50 0 58 38q14 50 36 50q10 0 20 -10q-10 -126 -102 -182 q-20 -14 -66 -14q-40 0 -98 58t-80 58q-52 0 -60 -38q-14 -50 -36 -50q-8 0 -18 10z" />
<glyph unicode="&#xf6;" horiz-adv-x="1138" d="M88 490q0 494 482 494q478 0 478 -494t-478 -494q-482 0 -482 494zM300 498q6 -406 274 -406q264 0 264 400q-2 396 -272 396q-266 0 -266 -390zM330 1176q0 96 98 96q96 0 96 -96q0 -92 -96 -92q-98 0 -98 92zM614 1176q0 96 98 96q96 0 96 -96q0 -92 -96 -92 q-98 0 -98 92z" />
<glyph unicode="&#xf7;" d="M148 470v96h876v-96h-876zM470 154q0 48 32 80t82 32q52 0 84 -32q34 -34 34 -80q0 -44 -34 -78t-84 -34q-48 0 -82 34q-32 32 -32 78zM470 890q0 48 32 80t82 32q52 0 84 -32q34 -34 34 -80q0 -44 -34 -78t-84 -34q-48 0 -82 34q-32 32 -32 78z" />
<glyph unicode="&#xf8;" horiz-adv-x="1138" d="M88 488q0 500 482 500q64 0 110 -8l96 252h100l-104 -274q278 -90 278 -470q0 -500 -480 -500q-84 0 -158 16l-98 -260h-98l-2 2l110 288q-236 104 -236 454zM298 482q4 -206 78 -306l266 704q-36 10 -76 10q-268 0 -268 -396v-12zM452 112q52 -28 122 -28q266 0 266 396 v10q-2 256 -114 348z" />
<glyph unicode="&#xf9;" horiz-adv-x="1192" d="M30 874v80l184 4q82 6 176 18v-648q0 -204 160 -204q136 0 256 154v498q-10 96 -156 98v80q44 0 96 2q36 0 88 2q82 6 178 18v-778q8 -92 154 -98v-78q-98 0 -182 -6q-38 -2 -88 -8q-10 0 -22 -2q-10 0 -22 -2l-46 -4v148q-132 -150 -320 -152q-152 4 -226 82 q-76 82 -76 242v456q-10 96 -154 98zM406 1236q0 54 44 86q30 24 68 24q48 0 84 -42l4 -6q34 -46 88 -250l-44 -30q-184 112 -222 154q-22 28 -22 64z" />
<glyph unicode="&#xfa;" horiz-adv-x="1192" d="M30 874v80l184 4q82 6 176 18v-648q0 -204 160 -204q136 0 256 154v498q-10 96 -156 98v80q44 0 96 2q36 0 88 2q82 6 178 18v-778q8 -92 154 -98v-78q-98 0 -182 -6q-38 -2 -88 -8q-10 0 -22 -2q-10 0 -22 -2l-46 -4v148q-132 -150 -320 -152q-152 4 -226 82 q-76 82 -76 242v456q-10 96 -154 98zM502 1048q54 200 88 250l4 6q36 42 84 42q36 0 68 -24q44 -32 44 -86q0 -36 -22 -64q-38 -42 -222 -154z" />
<glyph unicode="&#xfb;" horiz-adv-x="1192" d="M30 874v80l184 4q82 6 176 18v-648q0 -204 160 -204q136 0 256 154v498q-10 96 -156 98v80q44 0 96 2q36 0 88 2q82 6 178 18v-778q8 -92 154 -98v-78q-98 0 -182 -6q-38 -2 -88 -8q-10 0 -22 -2q-10 0 -22 -2l-46 -4v148q-132 -150 -320 -152q-152 4 -226 82 q-76 82 -76 242v456q-10 96 -154 98zM342 1088q0 8 2 12l254 250l252 -250q2 -4 2 -12q0 -24 -34 -24q-12 0 -20 2l-200 114l-202 -114q-4 -2 -10 -2h-10q-34 0 -34 24z" />
<glyph unicode="&#xfc;" horiz-adv-x="1192" d="M30 874v80l184 4q82 6 176 18v-648q0 -204 160 -204q136 0 256 154v498q-10 96 -156 98v80q44 0 96 2q36 0 88 2q82 6 178 18v-778q8 -92 154 -98v-78q-98 0 -182 -6q-38 -2 -88 -8q-10 0 -22 -2q-10 0 -22 -2l-46 -4v148q-132 -150 -320 -152q-152 4 -226 82 q-76 82 -76 242v456q-10 96 -154 98zM358 1176q0 96 98 96q96 0 96 -96q0 -92 -96 -92q-98 0 -98 92zM642 1176q0 96 98 96q96 0 96 -96q0 -92 -96 -92q-98 0 -98 92z" />
<glyph unicode="&#xfd;" horiz-adv-x="1002" d="M-134 -278q18 112 134 114q88 0 144 -44q22 -20 52 -20q34 0 70 30q116 86 182 274l-230 588q-104 220 -204 224v66h450v-66q-76 -4 -76 -86q0 -22 6 -50l168 -446l208 446q18 42 18 72q0 60 -82 64v66h328v-66q-78 -4 -180 -224l-246 -540q-246 -544 -582 -544h-6 q-154 10 -154 142zM354 1048q54 200 88 250l4 6q36 42 84 42q36 0 68 -24q44 -32 44 -86q0 -36 -22 -64q-38 -42 -222 -154z" />
<glyph unicode="&#xfe;" horiz-adv-x="1110" d="M20 1374v76q168 0 360 24v-540q86 62 244 62q234 0 326 -150q92 -146 92 -348q0 -204 -108 -352q-106 -148 -334 -148q-120 0 -220 36v-274q0 -110 130 -114v-66h-454v66q118 4 118 114v1514q-6 90 -154 100zM380 250q28 -144 196 -152q120 4 188 112q64 106 64 288 q0 236 -86 322q-66 86 -192 86q-124 0 -170 -150v-506z" />
<glyph unicode="&#xff;" horiz-adv-x="1002" d="M-134 -278q18 112 134 114q88 0 144 -44q22 -20 52 -20q34 0 70 30q116 86 182 274l-230 588q-104 220 -204 224v66h450v-66q-76 -4 -76 -86q0 -22 6 -50l168 -446l208 446q18 42 18 72q0 60 -82 64v66h328v-66q-78 -4 -180 -224l-246 -540q-246 -544 -582 -544h-6 q-154 10 -154 142zM210 1176q0 96 98 96q96 0 96 -96q0 -92 -96 -92q-98 0 -98 92zM494 1176q0 96 98 96q96 0 96 -96q0 -92 -96 -92q-98 0 -98 92z" />
<glyph unicode="&#x152;" horiz-adv-x="1998" d="M92 698q0 336 160 536q162 196 478 196q72 0 148 -10h996v-376h-90q0 268 -278 268h-310v-42l18 -18q10 -10 16 -18q136 -170 158 -446h134q110 0 112 108h78v-314h-78q-2 98 -112 98h-132q-2 -308 -162 -500q-4 -6 -16 -18l-16 -18v-36h382q270 0 270 268h92v-376h-1020 q-84 -16 -170 -16q-334 0 -496 196q-162 198 -162 518zM330 698q6 -292 122 -458q118 -168 298 -168q144 0 238 92q28 26 58 72q106 166 106 462q-6 298 -120 466q-28 36 -42 52q-108 116 -260 116q-188 0 -294 -166q-106 -164 -106 -468z" />
<glyph unicode="&#x153;" horiz-adv-x="1714" d="M88 492q0 500 482 500q236 0 356 -122q110 112 328 116q186 0 298 -124q110 -124 110 -348h-614v-22q0 -40 -2 -58q28 -320 258 -324q182 0 270 190l56 -42q-92 -260 -374 -260q-212 2 -322 124q-120 -130 -364 -130q-482 0 -482 500zM300 500q6 -410 274 -410 q264 0 264 404q-2 402 -272 402q-266 0 -266 -396zM1048 612h404q-8 258 -172 262q-190 0 -232 -262z" />
<glyph unicode="&#x178;" horiz-adv-x="1076" d="M-30 1354v66h428v-66q-84 -2 -84 -66q0 -22 14 -48l258 -502l250 502q14 26 14 48q0 64 -84 66v66h340v-66q-80 -2 -140 -116l-320 -636v-422q0 -112 146 -114v-66h-500v66q148 4 148 114v426l-348 632q-66 114 -122 116zM300 1642q0 96 98 96q96 0 96 -96q0 -92 -96 -92 q-98 0 -98 92zM584 1642q0 96 98 96q96 0 96 -96q0 -92 -96 -92q-98 0 -98 92z" />
<glyph unicode="&#x2c6;" horiz-adv-x="744" d="M116 1088q0 8 2 12l254 250l252 -250q2 -4 2 -12q0 -24 -34 -24q-12 0 -20 2l-200 114l-202 -114q-4 -2 -10 -2h-10q-34 0 -34 24z" />
<glyph unicode="&#x2dc;" horiz-adv-x="612" d="M76 1094q10 126 100 182q22 14 70 14q38 0 96 -58t80 -58q50 0 58 38q14 50 36 50q10 0 20 -10q-10 -126 -102 -182q-20 -14 -66 -14q-40 0 -98 58t-80 58q-52 0 -60 -38q-14 -50 -36 -50q-8 0 -18 10z" />
<glyph unicode="&#x2000;" horiz-adv-x="908" />
<glyph unicode="&#x2001;" horiz-adv-x="1816" />
<glyph unicode="&#x2002;" horiz-adv-x="908" />
<glyph unicode="&#x2003;" horiz-adv-x="1816" />
<glyph unicode="&#x2004;" horiz-adv-x="605" />
<glyph unicode="&#x2005;" horiz-adv-x="454" />
<glyph unicode="&#x2006;" horiz-adv-x="302" />
<glyph unicode="&#x2007;" horiz-adv-x="302" />
<glyph unicode="&#x2008;" horiz-adv-x="227" />
<glyph unicode="&#x2009;" horiz-adv-x="363" />
<glyph unicode="&#x200a;" horiz-adv-x="100" />
<glyph unicode="&#x2010;" horiz-adv-x="798" d="M78 488v96h642v-96h-642z" />
<glyph unicode="&#x2011;" horiz-adv-x="798" d="M78 488v96h642v-96h-642z" />
<glyph unicode="&#x2012;" horiz-adv-x="798" d="M78 488v96h642v-96h-642z" />
<glyph unicode="&#x2013;" horiz-adv-x="1208" d="M48 410v116h1112v-116h-1112z" />
<glyph unicode="&#x2014;" horiz-adv-x="1692" d="M48 410v116h1594v-116h-1594z" />
<glyph unicode="&#x2018;" horiz-adv-x="426" d="M98 1092v8q0 148 176 318l38 -42q-60 -76 -82 -176q40 0 66 -30q34 -34 34 -78t-34 -78t-82 -34q-50 0 -84 34q-32 32 -32 78z" />
<glyph unicode="&#x2019;" horiz-adv-x="490" d="M118 1306q0 46 32 78q34 34 82 34q50 0 84 -34q32 -32 32 -78v-8q0 -148 -176 -318l-38 42q60 80 82 176q-38 0 -66 30q-32 32 -32 78z" />
<glyph unicode="&#x201a;" horiz-adv-x="426" d="M98 94q0 48 32 80q34 34 82 34q50 0 84 -34t34 -80v-8q0 -144 -178 -316l-36 40q58 82 80 178q-38 0 -66 28q-32 32 -32 78z" />
<glyph unicode="&#x201c;" horiz-adv-x="750" d="M98 1092v8q0 148 176 318l38 -42q-60 -76 -82 -176q40 0 66 -30q34 -34 34 -78t-34 -78t-82 -34q-50 0 -84 34q-32 32 -32 78zM422 1092v8q0 148 176 318l38 -42q-60 -76 -82 -176q40 0 66 -30q34 -34 34 -78t-34 -78t-82 -34q-50 0 -84 34q-32 32 -32 78z" />
<glyph unicode="&#x201d;" horiz-adv-x="814" d="M118 1306q0 46 32 78q34 34 82 34q50 0 84 -34q32 -32 32 -78v-8q0 -148 -176 -318l-38 42q60 80 82 176q-38 0 -66 30q-32 32 -32 78zM442 1306q0 46 32 78q34 34 82 34q50 0 84 -34q32 -32 32 -78v-8q0 -148 -176 -318l-38 42q60 80 82 176q-38 0 -66 30q-32 32 -32 78 z" />
<glyph unicode="&#x201e;" horiz-adv-x="814" d="M118 106q0 48 32 80t82 32q52 0 84 -32t32 -80v-8q0 -146 -176 -316l-38 40q60 80 82 178q-38 0 -66 28q-32 32 -32 78zM442 106q0 48 32 80t82 32q52 0 84 -32t32 -80v-8q0 -146 -176 -316l-38 40q60 80 82 178q-38 0 -66 28q-32 32 -32 78z" />
<glyph unicode="&#x2022;" horiz-adv-x="250" d="M10 710q0 48 32 80q38 34 82 34q50 0 84 -34t34 -80q0 -44 -34 -78t-84 -34q-44 0 -82 34q-32 32 -32 78z" />
<glyph unicode="&#x2026;" horiz-adv-x="2000" d="M98 102q0 46 32 78q34 34 82 34q50 0 84 -34t34 -78q0 -46 -34 -80q-32 -32 -84 -32q-50 0 -82 32t-32 80zM764 102q0 46 32 78q34 34 82 34q50 0 84 -34t34 -78q0 -46 -34 -80q-32 -32 -84 -32q-50 0 -82 32t-32 80zM1432 102q0 46 32 78q34 34 82 34q50 0 84 -34 t34 -78q0 -46 -34 -80q-32 -32 -84 -32q-50 0 -82 32t-32 80z" />
<glyph unicode="&#x202f;" horiz-adv-x="363" />
<glyph unicode="&#x2039;" horiz-adv-x="716" d="M54 518l466 474v-122l-330 -352l330 -352v-122z" />
<glyph unicode="&#x203a;" horiz-adv-x="716" d="M196 44v122l330 352l-330 352v122l466 -474z" />
<glyph unicode="&#x205f;" horiz-adv-x="454" />
<glyph unicode="&#x20ac;" horiz-adv-x="1258" d="M48 478l14 100h110q-2 40 -2 84v74h-88l12 98h78q72 604 548 604q392 0 470 -146v-280h-86q-24 120 -96 226q-72 104 -236 104q-300 0 -346 -508h372l-12 -98h-368q0 -82 10 -158h338l-14 -100h-302q52 -382 322 -382q164 0 236 104q72 106 96 226h86v-282 q-78 -144 -470 -144q-476 0 -530 478h-142z" />
<glyph unicode="&#x2122;" horiz-adv-x="1812" d="M48 1156v264h898l320 -654l280 654h218v-80q-64 0 -64 -106v-576q0 -50 64 -50v-78h-318v78q64 0 70 42v362l-214 -482h-124l-238 488v-360q0 -50 64 -50v-78h-262v78q62 0 62 50v576q0 84 -24 92v-170h-110q0 160 -92 160h-72v-658q0 -50 96 -50v-78h-376v78q96 0 96 50 v658h-72q-92 0 -92 -160h-110z" />
<glyph unicode="&#x25fc;" horiz-adv-x="950" d="M0 0v950h950v-950h-950z" />
<glyph unicode="&#xfb03;" horiz-adv-x="2058" d="M44 874v80h180v238q0 364 310 392q250 0 286 -206q0 -128 -114 -132q-114 6 -116 102q0 40 14 62q22 38 22 50q0 26 -52 26q-144 0 -144 -230v-302h518v238q0 366 308 392q250 0 286 -206q0 -128 -114 -132q-110 6 -114 102q0 40 14 62q22 38 22 50q0 26 -54 26 q-144 0 -144 -230v-302h362l184 8q84 6 176 18v-800q0 -110 130 -114v-66h-454v66q118 4 118 114v620q-4 72 -76 74h-440v-694q0 -110 174 -114v-66h-498v66q120 4 120 114v694h-518v-694q0 -110 174 -114v-66h-500v66q120 4 120 114v694h-180zM1592 1358q0 52 40 92t104 40 q60 0 100 -40t40 -92t-40 -92t-100 -40q-64 0 -104 40t-40 92z" />
<glyph unicode="&#xfb04;" horiz-adv-x="2010" d="M44 874v80h180v238q0 364 310 392q250 0 286 -206q0 -128 -114 -132q-114 6 -116 102q0 40 14 62q22 38 22 50q0 26 -52 26q-144 0 -144 -230v-302h518v238q0 366 308 392q202 0 264 -134q150 4 318 24v-1294q0 -112 128 -114v-66h-454v66q120 4 120 114v1094 q-6 70 -90 90q-6 -114 -114 -118q-110 6 -114 102q0 40 14 62q22 38 22 50q0 26 -54 26q-144 0 -144 -230v-302h302v-80h-302v-694q0 -110 174 -114v-66h-498v66q120 4 120 114v694h-518v-694q0 -110 174 -114v-66h-500v66q120 4 120 114v694h-180z" />
</font>
</defs>
</svg>
